<svg width="354" height="657" viewBox="0 0 354 657" fill="none" xmlns="http://www.w3.org/2000/svg">
<g opacity="0.05">
<path d="M30.487 246.5H37.513C38.1432 246.5 38.7644 246.351 39.3261 246.065C39.8878 245.78 40.3741 245.365 40.7453 244.856C41.1164 244.347 41.3621 243.757 41.4621 243.135C41.5622 242.513 41.5138 241.876 41.321 241.276L39.615 235.97C39.2911 234.962 38.6557 234.083 37.8002 233.46C36.9448 232.836 35.9136 232.5 34.855 232.5H33.145C32.0864 232.5 31.0552 232.836 30.1998 233.46C29.3444 234.083 28.7089 234.962 28.385 235.97L26.679 241.276C26.4862 241.876 26.4378 242.513 26.5379 243.135C26.6379 243.757 26.8836 244.347 27.2548 244.856C27.626 245.365 28.1122 245.78 28.6739 246.065C29.2356 246.351 29.8568 246.5 30.487 246.5ZM37 228.5C36.3333 231.167 35.3333 232.5 34 232.5C32.6667 232.5 31.6667 231.167 31 228.5H37Z" stroke="#008751" stroke-width="2" stroke-linecap="round" stroke-linejoin="round"/>
<path d="M36 236.5H33.5C33.1022 236.5 32.7206 236.658 32.4393 236.939C32.158 237.221 32 237.602 32 238C32 238.398 32.158 238.779 32.4393 239.061C32.7206 239.342 33.1022 239.5 33.5 239.5H34.5C34.8978 239.5 35.2794 239.658 35.5607 239.939C35.842 240.221 36 240.602 36 241C36 241.398 35.842 241.779 35.5607 242.061C35.2794 242.342 34.8978 242.5 34.5 242.5H32M34 235.5V236.5M34 242.5V243.5" stroke="#008751" stroke-width="2" stroke-linecap="round" stroke-linejoin="round"/>
<path d="M9 623.66L15 617.66" stroke="#008751" stroke-width="2" stroke-linecap="round" stroke-linejoin="round"/>
<path d="M9.5 618.66C9.77614 618.66 10 618.436 10 618.16C10 617.884 9.77614 617.66 9.5 617.66C9.22386 617.66 9 617.884 9 618.16C9 618.436 9.22386 618.66 9.5 618.66Z" fill="#008751" stroke="#008751" stroke-width="2" stroke-linecap="round" stroke-linejoin="round"/>
<path d="M14.5 623.66C14.7761 623.66 15 623.436 15 623.16C15 622.884 14.7761 622.66 14.5 622.66C14.2239 622.66 14 622.884 14 623.16C14 623.436 14.2239 623.66 14.5 623.66Z" fill="#008751" stroke="#008751" stroke-width="2" stroke-linecap="round" stroke-linejoin="round"/>
<path d="M5 630.66V614.66C5 614.13 5.21071 613.621 5.58579 613.246C5.96086 612.871 6.46957 612.66 7 612.66H17C17.5304 612.66 18.0391 612.871 18.4142 613.246C18.7893 613.621 19 614.13 19 614.66V630.66L16 628.66L14 630.66L12 628.66L10 630.66L8 628.66L5 630.66Z" stroke="#008751" stroke-width="2" stroke-linecap="round" stroke-linejoin="round"/>
<g clip-path="url(#clip0_20_12257)">
<path d="M288.625 149.125V151H290.102C290.558 151 291.007 151.12 291.403 151.346L293.338 152.451C293.396 152.484 293.458 152.5 293.524 152.5H296.875C297.173 152.5 297.459 152.619 297.67 152.83C297.881 153.04 298 153.327 298 153.625C298 153.923 297.881 154.21 297.67 154.42C297.459 154.631 297.173 154.75 296.875 154.75H296.234L299.401 161.788C299.494 161.996 299.522 162.228 299.481 162.452C299.44 162.677 299.331 162.884 299.17 163.045L298.375 162.25L299.168 163.047L299.167 163.049L299.164 163.052L299.155 163.062L299.146 163.069L299.131 163.084L299.063 163.144C298.746 163.409 298.403 163.634 298.034 163.819C297.334 164.17 296.32 164.5 295 164.5C293.949 164.512 292.91 164.279 291.965 163.819C291.597 163.635 291.252 163.409 290.936 163.144L290.869 163.084L290.845 163.062L290.836 163.052L290.83 163.047V163.045C290.668 162.884 290.56 162.677 290.519 162.452C290.477 162.228 290.505 161.996 290.599 161.788L293.767 154.75H293.524C293.066 154.75 292.618 154.632 292.222 154.404L290.287 153.299C290.23 153.267 290.166 153.25 290.101 153.25H288.625V167.5H292.375C292.673 167.5 292.959 167.619 293.17 167.83C293.381 168.04 293.5 168.327 293.5 168.625C293.5 168.923 293.381 169.21 293.17 169.42C292.959 169.631 292.673 169.75 292.375 169.75H282.625C282.326 169.75 282.04 169.631 281.829 169.42C281.618 169.21 281.5 168.923 281.5 168.625C281.5 168.327 281.618 168.04 281.829 167.83C282.04 167.619 282.326 167.5 282.625 167.5H286.375V153.25H284.899C284.834 153.25 284.769 153.267 284.713 153.299L282.779 154.405C282.382 154.63 281.933 154.75 281.476 154.75H281.233L284.401 161.788C284.494 161.996 284.522 162.228 284.481 162.452C284.44 162.677 284.331 162.884 284.17 163.045L283.375 162.25L284.168 163.047L284.167 163.049L284.164 163.052L284.155 163.062L284.131 163.084L284.063 163.144C283.746 163.409 283.403 163.634 283.034 163.819C282.334 164.17 281.32 164.5 280 164.5C278.949 164.512 277.91 164.279 276.965 163.819C276.597 163.635 276.252 163.409 275.936 163.144L275.869 163.084L275.845 163.062L275.836 163.052L275.83 163.047V163.045C275.668 162.884 275.56 162.677 275.519 162.452C275.477 162.228 275.505 161.996 275.599 161.788L278.767 154.75H278.125C277.826 154.75 277.54 154.631 277.329 154.42C277.118 154.21 277 153.923 277 153.625C277 153.327 277.118 153.04 277.329 152.83C277.54 152.619 277.826 152.5 278.125 152.5H281.476C281.542 152.5 281.606 152.483 281.663 152.451L283.595 151.345C283.993 151.12 284.441 151 284.899 151H286.375V149.125C286.375 148.827 286.493 148.54 286.704 148.33C286.915 148.119 287.201 148 287.5 148C287.798 148 288.084 148.119 288.295 148.33C288.506 148.54 288.625 148.827 288.625 149.125ZM293.042 161.84C293.47 162.043 294.119 162.25 295 162.25C295.88 162.25 296.53 162.043 296.957 161.84L295 157.491L293.042 161.84ZM278.042 161.84C278.47 162.043 279.119 162.25 280 162.25C280.88 162.25 281.53 162.043 281.957 161.84L280 157.491L278.042 161.84Z" fill="#008751"/>
</g>
<path d="M14.75 2.75V4.5H16.725C17.076 4.5 17.419 4.606 17.709 4.803L19.406 5.957C19.448 5.985 19.4947 5.99933 19.546 6H23.648C23.8469 6 24.0377 6.07902 24.1783 6.21967C24.319 6.36032 24.398 6.55109 24.398 6.75C24.398 6.94891 24.319 7.13968 24.1783 7.28033C24.0377 7.42098 23.8469 7.5 23.648 7.5H22.07L25.436 15.18C25.5033 15.3336 25.5173 15.5053 25.4756 15.6677C25.4339 15.8301 25.339 15.9739 25.206 16.076C25.106 16.15 25.0027 16.2187 24.896 16.282C24.6428 16.4343 24.3788 16.5676 24.106 16.681C23.2015 17.0593 22.2304 17.2527 21.25 17.25C20.2699 17.2543 19.2989 17.0611 18.395 16.682C18.1222 16.5683 17.8581 16.4346 17.605 16.282C17.4986 16.221 17.3961 16.1535 17.298 16.08L17.293 16.076C17.16 15.9739 17.0651 15.8301 17.0234 15.6677C16.9817 15.5053 16.9957 15.3336 17.063 15.18L20.431 7.5H19.545C19.194 7.5 18.851 7.394 18.561 7.197L16.864 6.043C16.8227 6.01501 16.7739 6.00004 16.724 6H14.75V20.5H19.237C19.4359 20.5 19.6267 20.579 19.7673 20.7197C19.908 20.8603 19.987 21.0511 19.987 21.25C19.987 21.4489 19.908 21.6397 19.7673 21.7803C19.6267 21.921 19.4359 22 19.237 22H8.763C8.56409 22 8.37332 21.921 8.23267 21.7803C8.09202 21.6397 8.013 21.4489 8.013 21.25C8.013 21.0511 8.09202 20.8603 8.23267 20.7197C8.37332 20.579 8.56409 20.5 8.763 20.5H13.25V6H11.275C11.2251 6.00004 11.1763 6.01501 11.135 6.043L9.439 7.197C9.149 7.394 8.806 7.5 8.455 7.5H7.569L10.937 15.18C11.0022 15.3292 11.0171 15.4956 10.9793 15.654C10.9416 15.8124 10.8534 15.9542 10.728 16.058C10.648 16.123 10.568 16.184 10.418 16.281C10.1652 16.445 9.9005 16.5898 9.626 16.714C8.72305 17.125 7.74209 17.3365 6.75 17.334C5.75791 17.3365 4.77695 17.125 3.874 16.714C3.5995 16.5898 3.33475 16.445 3.082 16.281C2.97556 16.2123 2.87244 16.1385 2.773 16.06C2.64832 15.9552 2.5606 15.8131 2.52279 15.6547C2.48499 15.4962 2.49908 15.3298 2.563 15.18L5.93 7.5H4.353C4.15409 7.5 3.96332 7.42098 3.82267 7.28033C3.68202 7.13968 3.603 6.94891 3.603 6.75C3.603 6.55109 3.68202 6.36032 3.82267 6.21967C3.96332 6.07902 4.15409 6 4.353 6H8.455C8.50567 6 8.55267 5.98567 8.596 5.957L10.291 4.803C10.581 4.605 10.925 4.5 11.276 4.5H13.25V2.75C13.25 2.55109 13.329 2.36032 13.4697 2.21967C13.6103 2.07902 13.8011 2 14 2C14.1989 2 14.3897 2.07902 14.5303 2.21967C14.671 2.36032 14.75 2.55109 14.75 2.75ZM4.193 15.198C4.97983 15.6175 5.85831 15.8357 6.75 15.833C7.64169 15.8357 8.52017 15.6175 9.307 15.198L6.75 9.368L4.193 15.198ZM18.703 15.174C18.785 15.214 18.8767 15.256 18.978 15.3C19.508 15.523 20.283 15.75 21.25 15.75C22.1316 15.7524 23.0022 15.5555 23.797 15.174L21.25 9.367L18.703 15.174Z" fill="#008751"/>
<path d="M311.667 649C311.667 649.398 311.509 649.779 311.227 650.061C310.946 650.342 310.565 650.5 310.167 650.5C309.769 650.5 309.387 650.342 309.106 650.061C308.825 649.779 308.667 649.398 308.667 649C308.667 648.602 308.825 648.221 309.106 647.939C309.387 647.658 309.769 647.5 310.167 647.5C310.565 647.5 310.946 647.658 311.227 647.939C311.509 648.221 311.667 648.602 311.667 649Z" fill="#008751"/>
<path d="M312.514 633.66L315.694 638.116L317.791 637.401L319.705 643H320.667V655H299.667V643H300.177V642.99L300.825 642.996L312.514 633.66ZM307.564 643H317.592L316.555 639.967L315.033 640.454L307.564 643ZM306.006 641.417L313.717 638.79L312.113 636.54L306.006 641.417ZM303.667 645H301.667V647C302.197 647 302.706 646.789 303.081 646.414C303.456 646.039 303.667 645.53 303.667 645ZM313.667 649C313.667 648.54 313.576 648.085 313.4 647.661C313.224 647.236 312.967 646.85 312.642 646.525C312.317 646.2 311.931 645.942 311.506 645.766C311.081 645.59 310.626 645.5 310.167 645.5C309.707 645.5 309.252 645.59 308.827 645.766C308.403 645.942 308.017 646.2 307.692 646.525C307.367 646.85 307.109 647.236 306.933 647.661C306.757 648.085 306.667 648.54 306.667 649C306.667 649.928 307.035 650.818 307.692 651.475C308.348 652.131 309.238 652.5 310.167 652.5C311.095 652.5 311.985 652.131 312.642 651.475C313.298 650.818 313.667 649.928 313.667 649ZM318.667 653V651C318.136 651 317.628 651.211 317.252 651.586C316.877 651.961 316.667 652.469 316.667 653H318.667ZM316.667 645C316.667 645.53 316.877 646.039 317.252 646.414C317.628 646.789 318.136 647 318.667 647V645H316.667ZM301.667 653H303.667C303.667 652.469 303.456 651.961 303.081 651.586C302.706 651.211 302.197 651 301.667 651V653Z" fill="#008751"/>
<path d="M183.4 558C181.883 558 180.604 557.479 179.562 556.438C178.52 555.397 177.999 554.117 178 552.6C178 551.967 178.108 551.35 178.325 550.75C178.542 550.15 178.85 549.608 179.25 549.125L182.8 544.85L180.375 540H193.625L191.2 544.85L194.75 549.125C195.15 549.608 195.458 550.15 195.675 550.75C195.892 551.35 196 551.967 196 552.6C196 554.117 195.475 555.396 194.425 556.438C193.375 557.48 192.1 558.001 190.6 558H183.4ZM187 553C186.45 553 185.979 552.804 185.588 552.413C185.197 552.022 185.001 551.551 185 551C184.999 550.449 185.195 549.979 185.588 549.588C185.981 549.197 186.451 549.001 187 549C187.549 548.999 188.02 549.195 188.413 549.588C188.806 549.981 189.002 550.452 189 551C188.998 551.548 188.802 552.019 188.413 552.413C188.024 552.807 187.553 553.003 187 553ZM184.625 544H189.375L190.375 542H183.625L184.625 544ZM183.4 556H190.6C191.55 556 192.354 555.671 193.013 555.013C193.672 554.355 194.001 553.551 194 552.6C194 552.2 193.929 551.813 193.787 551.438C193.645 551.063 193.449 550.726 193.2 550.425L189.525 546H184.5L180.8 550.4C180.55 550.7 180.354 551.042 180.213 551.425C180.072 551.808 180.001 552.2 180 552.6C180 553.55 180.329 554.354 180.988 555.013C181.647 555.672 182.451 556.001 183.4 556Z" fill="#008751"/>
<path fill-rule="evenodd" clip-rule="evenodd" d="M56.3853 451.25H56.2813C55.3823 451.25 54.6333 451.25 54.0393 451.33C53.4113 451.414 52.8443 451.6 52.3893 452.055C51.9333 452.511 51.7473 453.078 51.6633 453.705C51.6063 454.132 51.5893 455.151 51.5853 456.025C49.5633 456.092 48.3483 456.328 47.5053 457.172C46.3333 458.343 46.3333 460.229 46.3333 464C46.3333 467.771 46.3333 469.657 47.5053 470.828C48.6773 471.999 50.5623 472 54.3333 472H58.3333C62.1043 472 63.9903 472 65.1613 470.828C66.3323 469.656 66.3333 467.771 66.3333 464C66.3333 460.229 66.3333 458.343 65.1613 457.172C64.3183 456.328 63.1033 456.092 61.0813 456.026C61.0773 455.151 61.0613 454.132 61.0033 453.706C60.9193 453.078 60.7333 452.511 60.2773 452.056C59.8223 451.6 59.2553 451.414 58.6273 451.33C58.0333 451.25 57.2833 451.25 56.3853 451.25ZM59.5813 456.002C59.5763 455.155 59.5623 454.244 59.5173 453.905C59.4543 453.444 59.3473 453.246 59.2173 453.116C59.0873 452.986 58.8893 452.879 58.4273 452.816C57.9453 452.752 57.2973 452.75 56.3333 452.75C55.3693 452.75 54.7213 452.752 54.2383 452.817C53.7773 452.879 53.5793 452.986 53.4493 453.117C53.3193 453.248 53.2123 453.444 53.1493 453.905C53.1043 454.245 53.0893 455.155 53.0853 456.002C53.4773 456 53.8933 455.999 54.3333 456H58.3333C58.7746 456 59.1906 456.001 59.5813 456.002ZM56.3333 459.25C56.5322 459.25 56.7229 459.329 56.8636 459.47C57.0042 459.61 57.0833 459.801 57.0833 460V460.01C58.1723 460.284 59.0833 461.143 59.0833 462.333C59.0833 462.532 59.0042 462.723 58.8636 462.863C58.7229 463.004 58.5322 463.083 58.3333 463.083C58.1343 463.083 57.9436 463.004 57.8029 462.863C57.6623 462.723 57.5833 462.532 57.5833 462.333C57.5833 461.949 57.1573 461.417 56.3333 461.417C55.5093 461.417 55.0833 461.949 55.0833 462.333C55.0833 462.717 55.5093 463.25 56.3333 463.25C57.7183 463.25 59.0833 464.21 59.0833 465.667C59.0833 466.857 58.1723 467.715 57.0833 467.99V468C57.0833 468.199 57.0042 468.39 56.8636 468.53C56.7229 468.671 56.5322 468.75 56.3333 468.75C56.1343 468.75 55.9436 468.671 55.8029 468.53C55.6623 468.39 55.5833 468.199 55.5833 468V467.99C54.4943 467.716 53.5833 466.857 53.5833 465.667C53.5833 465.468 53.6623 465.277 53.8029 465.137C53.9436 464.996 54.1343 464.917 54.3333 464.917C54.5322 464.917 54.7229 464.996 54.8636 465.137C55.0042 465.277 55.0833 465.468 55.0833 465.667C55.0833 466.051 55.5093 466.583 56.3333 466.583C57.1573 466.583 57.5833 466.051 57.5833 465.667C57.5833 465.283 57.1573 464.75 56.3333 464.75C54.9483 464.75 53.5833 463.79 53.5833 462.333C53.5833 461.143 54.4943 460.284 55.5833 460.01V460C55.5833 459.801 55.6623 459.61 55.8029 459.47C55.9436 459.329 56.1343 459.25 56.3333 459.25Z" fill="#008751"/>
<path fill-rule="evenodd" clip-rule="evenodd" d="M311.448 397.25H311.552C312.451 397.25 313.2 397.25 313.794 397.33C314.422 397.414 314.989 397.6 315.444 398.055C315.9 398.511 316.086 399.078 316.17 399.705C316.23 400.145 316.245 400.669 316.249 401.275C316.897 401.296 317.475 401.335 317.989 401.403C319.161 401.561 320.11 401.893 320.859 402.641C321.607 403.39 321.939 404.339 322.097 405.511C322.25 406.651 322.25 408.106 322.25 409.944V410.056C322.25 411.894 322.25 413.35 322.097 414.489C321.939 415.661 321.607 416.61 320.859 417.359C320.11 418.107 319.161 418.439 317.989 418.597C316.849 418.75 315.394 418.75 313.556 418.75H309.444C307.606 418.75 306.15 418.75 305.011 418.597C303.839 418.439 302.89 418.107 302.141 417.359C301.393 416.61 301.061 415.661 300.903 414.489C300.75 413.349 300.75 411.894 300.75 410.056V409.944C300.75 408.106 300.75 406.65 300.903 405.511C301.061 404.339 301.393 403.39 302.141 402.641C302.89 401.893 303.839 401.561 305.011 401.403C305.589 401.332 306.169 401.29 306.751 401.275C306.755 400.669 306.771 400.145 306.83 399.705C306.914 399.078 307.1 398.511 307.555 398.055C308.011 397.6 308.578 397.415 309.205 397.33C309.8 397.25 310.55 397.25 311.448 397.25ZM308.252 401.252C308.63 401.25 309.027 401.249 309.444 401.25H313.556C313.973 401.25 314.37 401.251 314.748 401.252C314.744 400.682 314.73 400.252 314.684 399.905C314.621 399.444 314.514 399.246 314.384 399.116C314.254 398.986 314.056 398.879 313.594 398.816C313.112 398.752 312.464 398.75 311.5 398.75C310.536 398.75 309.888 398.752 309.405 398.817C308.944 398.879 308.746 398.986 308.616 399.117C308.486 399.248 308.379 399.444 308.316 399.905C308.27 400.251 308.256 400.681 308.252 401.252ZM305.21 402.89C304.204 403.025 303.624 403.279 303.2 403.702C302.778 404.125 302.524 404.705 302.389 405.711C302.251 406.738 302.249 408.093 302.249 410C302.249 411.907 302.251 413.262 302.389 414.29C302.524 415.295 302.778 415.875 303.201 416.298C303.624 416.721 304.204 416.975 305.21 417.11C306.238 417.248 307.592 417.25 309.499 417.25H313.499C315.406 417.25 316.761 417.248 317.789 417.11C318.794 416.975 319.374 416.721 319.797 416.298C320.22 415.875 320.474 415.295 320.609 414.289C320.747 413.262 320.749 411.907 320.749 410C320.749 408.093 320.747 406.739 320.609 405.71C320.474 404.705 320.22 404.125 319.797 403.702C319.374 403.279 318.794 403.025 317.788 402.89C316.761 402.752 315.406 402.75 313.499 402.75H309.499C307.592 402.75 306.239 402.752 305.21 402.89ZM311.5 405.25C311.699 405.25 311.89 405.329 312.03 405.47C312.171 405.61 312.25 405.801 312.25 406V406.01C313.339 406.284 314.25 407.143 314.25 408.333C314.25 408.532 314.171 408.723 314.03 408.863C313.89 409.004 313.699 409.083 313.5 409.083C313.301 409.083 313.11 409.004 312.97 408.863C312.829 408.723 312.75 408.532 312.75 408.333C312.75 407.949 312.324 407.417 311.5 407.417C310.676 407.417 310.25 407.949 310.25 408.333C310.25 408.717 310.676 409.25 311.5 409.25C312.885 409.25 314.25 410.21 314.25 411.667C314.25 412.857 313.339 413.715 312.25 413.99V414C312.25 414.199 312.171 414.39 312.03 414.53C311.89 414.671 311.699 414.75 311.5 414.75C311.301 414.75 311.11 414.671 310.97 414.53C310.829 414.39 310.75 414.199 310.75 414V413.99C309.661 413.716 308.75 412.857 308.75 411.667C308.75 411.468 308.829 411.277 308.97 411.137C309.11 410.996 309.301 410.917 309.5 410.917C309.699 410.917 309.89 410.996 310.03 411.137C310.171 411.277 310.25 411.468 310.25 411.667C310.25 412.051 310.676 412.583 311.5 412.583C312.324 412.583 312.75 412.051 312.75 411.667C312.75 411.283 312.324 410.75 311.5 410.75C310.115 410.75 308.75 409.79 308.75 408.333C308.75 407.143 309.661 406.284 310.75 406.01V406C310.75 405.801 310.829 405.61 310.97 405.47C311.11 405.329 311.301 405.25 311.5 405.25Z" fill="#008751"/>
<path fill-rule="evenodd" clip-rule="evenodd" d="M78.3528 83C76.0943 83 74.0368 83.746 72.8193 84.3555C72.7093 84.4105 72.6066 84.4642 72.5113 84.5165C72.3223 84.6195 72.1613 84.7155 72.0333 84.8L73.4183 86.839L74.0703 87.0985C76.6183 88.384 80.0353 88.384 82.5838 87.0985L83.3238 86.7145L84.6333 84.8C84.3617 84.6236 84.0797 84.4638 83.7888 84.3215C82.5773 83.7185 80.5688 83 78.3533 83M75.1323 85.308C74.6419 85.2157 74.1576 85.0942 73.6818 84.944C74.8223 84.4375 76.5218 83.9 78.3533 83.9C79.6218 83.9 80.8213 84.158 81.8133 84.485C80.6508 84.6485 79.4103 84.926 78.2283 85.2675C77.2983 85.5365 76.2113 85.5075 75.1323 85.308ZM83.1123 87.84L82.9893 87.902C80.1863 89.316 76.4683 89.316 73.6653 87.902L73.5488 87.843C69.3373 92.4635 66.1223 100.999 78.3528 100.999C90.5833 100.999 87.2903 92.305 83.1123 87.84ZM77.8333 92C77.568 92 77.3137 92.1054 77.1261 92.2929C76.9386 92.4804 76.8333 92.7348 76.8333 93C76.8333 93.2652 76.9386 93.5196 77.1261 93.7071C77.3137 93.8946 77.568 94 77.8333 94V92ZM78.8333 91V90.5H77.8333V91C77.3028 91 76.7941 91.2107 76.419 91.5858C76.044 91.9609 75.8333 92.4696 75.8333 93C75.8333 93.5304 76.044 94.0391 76.419 94.4142C76.7941 94.7893 77.3028 95 77.8333 95V97C77.3983 97 77.0278 96.7225 76.8898 96.3335C76.8693 96.2699 76.8362 96.211 76.7926 96.1603C76.749 96.1097 76.6956 96.0683 76.6357 96.0386C76.5758 96.0089 76.5106 95.9916 76.4438 95.9875C76.3771 95.9835 76.3102 95.9929 76.2472 96.0152C76.1842 96.0375 76.1262 96.0721 76.0768 96.1172C76.0275 96.1622 75.9876 96.2167 75.9596 96.2775C75.9317 96.3382 75.9162 96.4039 75.914 96.4707C75.9119 96.5376 75.9232 96.6041 75.9473 96.6665C76.0851 97.0565 76.3405 97.3942 76.6783 97.633C77.0161 97.8719 77.4196 98.0001 77.8333 98V98.5H78.8333V98C79.3637 98 79.8724 97.7893 80.2475 97.4142C80.6225 97.0391 80.8333 96.5304 80.8333 96C80.8333 95.4696 80.6225 94.9609 80.2475 94.5858C79.8724 94.2107 79.3637 94 78.8333 94V92C79.2683 92 79.6388 92.2775 79.7768 92.6665C79.7972 92.7301 79.8303 92.789 79.8739 92.8397C79.9175 92.8903 79.9709 92.9317 80.0308 92.9614C80.0907 92.9911 80.1559 93.0084 80.2227 93.0125C80.2894 93.0165 80.3563 93.0071 80.4193 92.9848C80.4823 92.9625 80.5403 92.9279 80.5897 92.8828C80.6391 92.8378 80.6789 92.7833 80.7069 92.7225C80.7348 92.6618 80.7503 92.5961 80.7525 92.5293C80.7546 92.4624 80.7433 92.3959 80.7193 92.3335C80.5814 91.9435 80.326 91.6058 79.9882 91.367C79.6504 91.1281 79.2469 90.9999 78.8333 91ZM78.8333 95V97C79.0985 97 79.3528 96.8946 79.5404 96.7071C79.7279 96.5196 79.8333 96.2652 79.8333 96C79.8333 95.7348 79.7279 95.4804 79.5404 95.2929C79.3528 95.1054 79.0985 95 78.8333 95Z" fill="#008751"/>
<path d="M347.414 34.414C348 33.828 348 32.886 348 31C348 29.114 348 28.172 347.414 27.586M347.414 34.414C346.828 35 345.886 35 344 35H340C338.114 35 337.172 35 336.586 34.414M347.414 27.586C346.828 27 345.886 27 344 27H340C338.114 27 337.172 27 336.586 27.586M336.586 27.586C336 28.172 336 29.114 336 31C336 32.886 336 33.828 336.586 34.414M343 31C343 31.2652 342.895 31.5196 342.707 31.7071C342.52 31.8946 342.265 32 342 32C341.735 32 341.48 31.8946 341.293 31.7071C341.105 31.5196 341 31.2652 341 31C341 30.7348 341.105 30.4804 341.293 30.2929C341.48 30.1054 341.735 30 342 30C342.265 30 342.52 30.1054 342.707 30.2929C342.895 30.4804 343 30.7348 343 31Z" stroke="#008751" stroke-width="1.5"/>
<path d="M348 30C347.204 30 346.441 29.6839 345.879 29.1213C345.316 28.5587 345 27.7956 345 27M348 32C347.204 32 346.441 32.3161 345.879 32.8787C345.316 33.4413 345 34.2044 345 35M336 30C336.796 30 337.559 29.6839 338.121 29.1213C338.684 28.5587 339 27.7956 339 27M336 32C336.796 32 337.559 32.3161 338.121 32.8787C338.684 33.4413 339 34.2044 339 35M334 45.388H336.26C337.27 45.388 338.293 45.494 339.276 45.696C341.031 46.0554 342.837 46.0954 344.606 45.814M343.676 42.517C343.796 42.503 343.911 42.4873 344.021 42.47C344.932 42.325 345.697 41.837 346.397 41.308L348.205 39.943C348.528 39.7088 348.916 39.5827 349.315 39.5827C349.714 39.5827 350.102 39.7088 350.425 39.943C350.998 40.376 351.174 41.089 350.811 41.671C350.388 42.349 349.792 43.216 349.22 43.746M343.676 42.517L343.566 42.529M343.676 42.517C343.836 42.4736 343.983 42.3912 344.103 42.277C344.254 42.1468 344.377 41.9876 344.466 41.8089C344.554 41.6302 344.605 41.4356 344.617 41.2366C344.629 41.0377 344.601 40.8383 344.534 40.6505C344.467 40.4626 344.364 40.2901 344.229 40.143C344.099 39.9983 343.947 39.8746 343.779 39.776C340.982 38.107 336.629 39.378 334 41.243M343.676 42.517C343.64 42.5251 343.603 42.5291 343.566 42.529M343.566 42.529C342.963 42.5894 342.355 42.5908 341.752 42.533" stroke="#008751" stroke-width="1.5" stroke-linecap="round"/>
</g>
<defs>
<clipPath id="clip0_20_12257">
<rect width="24" height="24" fill="white" transform="translate(275.5 148)"/>
</clipPath>
</defs>
</svg>
